<svg xmlns="http://www.w3.org/2000/svg" viewBox="0 0 800 800">
  <rect width="100%" height="100%" fill="black"/>
  <circle cx="100" cy="100" r="2" fill="white"/>
  <circle cx="200" cy="300" r="2" fill="white"/>
  <circle cx="300" cy="150" r="2" fill="white"/>
  <circle cx="400" cy="400" r="2" fill="white"/>
  <circle cx="500" cy="250" r="2" fill="white"/>
  <circle cx="600" cy="500" r="2" fill="white"/>
  <circle cx="700" cy="350" r="2" fill="white"/>
  <circle cx="150" cy="200" r="1" fill="white"/>
  <circle cx="250" cy="400" r="1" fill="white"/>
  <circle cx="350" cy="100" r="1" fill="white"/>
  <circle cx="450" cy="450" r="1" fill="white"/>
  <circle cx="550" cy="300" r="1" fill="white"/>
  <circle cx="650" cy="550" r="1" fill="white"/>
  <circle cx="750" cy="150" r="1" fill="white"/>
  <ellipse cx="400" cy="400" rx="200" ry="50" fill="rgba(255, 255, 255, 0.1)"/>
  <ellipse cx="400" cy="400" rx="150" ry="40" fill="rgba(255, 255, 255, 0.2)"/>
  <ellipse cx="400" cy="400" rx="100" ry="30" fill="rgba(255, 255, 255, 0.3)"/>
  <ellipse cx="400" cy="400" rx="50" ry="20" fill="rgba(255, 255, 255, 0.4)"/>
  <circle cx="650" cy="200" r="30" fill="gray"/>
  <circle cx="660" cy="190" r="30" fill="rgba(255, 255, 255, 0.2)"/>
  <circle cx="660" cy="210" r="30" fill="rgba(0, 0, 0, 0.2)"/>
  <circle cx="150" cy="600" r="40" fill="brown"/>
  <circle cx="160" cy="590" r="40" fill="rgba(255, 255, 255, 0.2)"/>
  <circle cx="160" cy="610" r="40" fill="rgba(0, 0, 0, 0.2)"/>
</svg>
